<?xml version="1.0" standalone="no"?>
<!DOCTYPE svg PUBLIC "-//W3C//DTD SVG 20010904//EN"
 "http://www.w3.org/TR/2001/REC-SVG-20010904/DTD/svg10.dtd">
<svg version="1.0" xmlns="http://www.w3.org/2000/svg"
 width="480.000000pt" height="261.000000pt" viewBox="0 0 480.000000 261.000000"
 preserveAspectRatio="xMidYMid meet">

<g transform="translate(0.000000,261.000000) scale(0.100000,-0.100000)"
fill="#000000" stroke="none">
<path d="M3210 1880 c0 -13 7 -20 20 -20 13 0 20 7 20 20 0 13 -7 20 -20 20
-13 0 -20 -7 -20 -20z"/>
<path d="M3173 1616 c-17 -8 -36 -23 -42 -35 -14 -25 -14 -121 -1 -121 6 0 10
9 10 21 0 15 5 19 15 15 10 -3 15 1 15 12 1 16 1 16 11 0 5 -10 15 -18 20 -18
6 0 7 6 3 13 -4 6 2 4 13 -5 20 -18 38 -24 30 -10 -3 4 9 7 26 6 21 -1 33 -7
35 -17 8 -43 32 -7 32 48 0 25 -8 40 -35 64 -20 17 -41 31 -48 31 -7 0 -21 2
-32 5 -11 3 -34 -2 -52 -9z"/>
<path d="M445 1560 c-17 -5 -46 -26 -65 -45 l-35 -36 -3 -155 -3 -154 -104 0
c-81 0 -107 -3 -119 -16 -21 -21 -20 -36 9 -166 14 -61 25 -115 25 -119 0 -5
-11 -9 -25 -9 -22 0 -25 -4 -25 -35 0 -33 2 -35 35 -35 19 0 35 -4 35 -9 0 -4
-38 -148 -83 -320 l-84 -311 27 0 c27 0 28 2 88 228 33 125 64 240 68 257 7
28 8 26 23 -30 12 -46 21 -61 36 -63 19 -3 20 -9 17 -252 l-3 -250 26 0 25 0
0 250 0 250 145 0 145 0 0 -250 0 -250 25 0 c14 0 25 4 25 10 0 6 62 11 153
12 127 3 152 5 152 18 0 9 -17 20 -45 28 -25 7 -60 20 -78 28 -42 18 -72 18
-72 -1 0 -19 -15 -19 -67 3 -50 20 -58 49 -16 54 26 3 28 8 55 123 29 125 31
116 12 -65 l-7 -60 41 0 c23 0 42 5 44 13 3 6 24 103 48 215 33 151 41 208 34
220 -16 25 -202 73 -313 80 l-95 7 -42 191 c-23 105 -46 200 -52 209 -7 13 -5
26 9 49 10 17 25 63 34 101 15 63 15 70 1 81 -9 6 -16 19 -16 29 0 13 5 16 25
11 21 -5 34 2 75 40 52 48 61 75 37 108 -15 21 -79 29 -122 16z"/>
<path d="M2472 1420 c-56 -34 -72 -85 -72 -231 l0 -126 -30 5 -30 4 0 -245 0
-246 70 -7 70 -7 0 -48 0 -49 90 0 90 0 0 -235 c0 -228 1 -235 20 -235 11 0
20 5 20 10 0 6 55 10 146 10 129 0 145 2 142 16 -2 11 -29 25 -73 40 -84 28
-105 29 -105 8 0 -11 -5 -14 -17 -9 -10 3 -35 12 -55 18 -45 14 -54 47 -13 47
17 0 26 7 30 23 46 193 54 226 51 192 -3 -22 -8 -80 -12 -128 l-7 -88 38 3 38
3 43 195 c48 216 47 210 35 228 -13 21 -188 64 -291 71 l-95 6 -41 180 c-22
99 -43 188 -47 197 -3 10 3 37 13 61 11 24 25 67 31 96 10 46 9 55 -7 72 -14
15 -15 22 -5 32 9 9 14 9 20 -1 6 -10 21 -3 59 27 59 47 70 72 48 106 -14 21
-24 25 -69 25 -34 0 -63 -7 -85 -20z"/>
<path d="M3817 1422 c-28 -31 -20 -58 30 -102 35 -31 53 -40 69 -36 30 8 40
-11 20 -33 -17 -19 -20 -41 -10 -78 6 -20 13 -23 55 -23 l49 0 0 98 c0 107
-12 137 -66 173 -39 26 -125 26 -147 1z"/>
<path d="M3154 1294 c-12 -3 -29 -13 -37 -22 -17 -19 -89 -178 -117 -257 -9
-27 -31 -80 -48 -117 l-30 -66 35 -7 c19 -3 40 -8 47 -11 8 -3 19 9 29 33 l15
38 -1 -53 -2 -53 -65 1 c-36 1 -116 1 -177 1 l-113 -1 0 -29 c0 -17 4 -33 10
-36 5 -3 167 -6 360 -6 221 0 350 -3 350 -9 0 -6 14 -10 30 -10 17 0 30 5 30
10 0 6 52 10 135 10 101 0 135 3 135 13 0 6 3 22 6 35 l6 22 -182 0 c-183 0
-183 0 -161 20 13 10 43 22 67 26 24 3 44 11 44 18 0 6 -10 31 -22 56 -19 38
-23 68 -28 195 l-5 150 -55 3 c-40 2 -61 9 -78 25 -18 17 -37 22 -90 23 -37 1
-77 0 -88 -2z"/>
<path d="M4043 1063 c-10 -3 -13 -62 -13 -244 l0 -239 -80 0 -79 0 6 30 6 30
-77 0 c-73 0 -253 -37 -298 -61 -25 -13 -23 -36 25 -249 l42 -185 39 -3 39 -3
-7 68 c-17 174 -16 179 11 58 27 -116 29 -120 56 -123 41 -5 35 -35 -10 -49
-21 -6 -46 -15 -55 -18 -13 -5 -18 -2 -18 9 0 21 -24 20 -93 -4 -31 -11 -63
-20 -71 -20 -15 0 -28 -24 -19 -34 4 -3 71 -6 150 -6 89 0 143 -4 143 -10 0
-5 9 -10 20 -10 19 0 20 7 20 235 0 225 -1 235 -19 235 -11 0 -22 -8 -24 -17
-4 -16 -5 -16 -6 -1 0 9 -11 18 -23 20 -18 2 -24 11 -26 34 -5 52 17 64 114
64 l84 0 0 -50 0 -50 90 0 90 0 0 -235 c0 -228 1 -235 20 -235 19 0 20 7 20
234 0 222 1 235 19 241 10 3 22 18 25 33 4 15 9 35 12 44 4 15 -4 18 -58 21
l-63 3 62 2 62 2 10 38 c6 20 11 46 12 57 1 39 17 -28 70 -292 l52 -263 27 0
27 0 -53 267 c-29 148 -55 280 -58 296 -5 25 -3 27 29 27 33 0 35 2 35 35 l0
35 -50 0 c-27 0 -50 5 -50 10 0 8 25 128 45 217 3 15 -2 30 -15 43 -17 17 -32
20 -102 19 -46 0 -89 -3 -95 -6z"/>
<path d="M642 828 l3 -33 340 -3 340 -2 85 -320 85 -320 28 0 c23 0 27 3 22
19 -7 24 -165 613 -165 618 0 1 16 3 35 3 33 0 35 2 35 35 l0 35 -406 0 -405
0 3 -32z"/>
<path d="M2120 745 c0 -34 1 -35 38 -35 l39 0 -53 -272 c-30 -150 -56 -283
-59 -295 -5 -20 -1 -23 23 -23 l28 0 57 293 c48 247 55 298 46 330 -10 37 -10
37 -64 37 l-55 0 0 -35z"/>
<path d="M3396 658 c-3 -13 -6 -132 -6 -265 0 -236 1 -243 20 -243 19 0 20 7
20 214 l0 215 28 3 c25 3 27 6 27 48 l0 45 -41 3 c-36 3 -42 0 -48 -20z"/>
<path d="M3040 366 c0 -210 1 -216 20 -216 20 0 20 5 18 212 -3 193 -5 213
-20 216 -17 3 -18 -12 -18 -212z"/>
<path d="M2340 235 c0 -228 1 -235 20 -235 19 0 20 7 20 235 0 228 -1 235 -20
235 -19 0 -20 -7 -20 -235z"/>
<path d="M3110 105 c-27 -62 -26 -85 3 -85 38 0 47 14 50 70 2 45 -1 55 -16
58 -12 3 -22 -9 -37 -43z"/>
<path d="M3290 92 c0 -53 12 -72 46 -72 34 0 36 13 13 69 -15 36 -27 51 -40
51 -16 0 -19 -8 -19 -48z"/>
</g>
</svg>
